<?xml version="1.0" encoding="UTF-8"?>
<svg id="Layer_1" data-name="Layer 1" xmlns="http://www.w3.org/2000/svg" viewBox="0 0 960 960">
  <defs>
    <style>
      .cls-1 {
        fill: #025064;
        stroke-width: 0px;
      }
    </style>
  </defs>
  <path class="cls-1" d="M722.35,505.57c.05.85-.09,1.71-.4,2.5-.31.8-.78,1.52-1.38,2.13-.61.6-1.33,1.08-2.12,1.38-.8.31-1.65.44-2.51.4h-75.29c-1.65-.07-3.21-.78-4.35-1.98-1.14-1.2-1.78-2.79-1.78-4.44v-51.06c0-.8.16-1.6.47-2.34.31-.74.76-1.42,1.33-1.99.57-.57,1.24-1.02,1.99-1.33.74-.31,1.54-.47,2.34-.47h75.29c.83-.04,1.66.09,2.43.38.77.29,1.49.74,2.09,1.31.59.57,1.08,1.26,1.4,2.02.32.76.49,1.58.49,2.41v51.06ZM903.83,503.53c15.47-2.33,23.05-12.84,23.05-28.89v-24.22c0-18.67-10.8-29.18-29.18-29.18h-114.95v117.6h28.89v-90.46h79.96c.82-.04,1.64.09,2.4.38s1.45.74,2.03,1.32c.57.58,1.03,1.27,1.32,2.03.29.76.42,1.58.38,2.39v16.05c.04.82-.09,1.63-.38,2.39-.29.76-.75,1.45-1.32,2.03-.58.58-1.27,1.03-2.03,1.32s-1.58.42-2.4.38h-68v27.14h46.69l24.51,35.02h35.31l-26.28-35.32ZM634.82,421.24c-18.67,0-29.18,10.8-29.18,29.18v58.94c0,18.67,10.8,29.18,29.18,29.18h87.25c18.38,0,29.18-10.8,29.18-29.18v-58.94c0-18.67-10.8-29.18-29.18-29.18h-87.25ZM444.85,509.36c0,18.67,10.8,29.18,29.18,29.18h101.55v-26.84h-95.42c-.83,0-1.65-.17-2.41-.49-.76-.33-1.45-.8-2.02-1.4-.57-.6-1.02-1.31-1.31-2.09-.29-.78-.42-1.61-.38-2.43v-50.77c0-1.63.65-3.18,1.8-4.33,1.15-1.15,2.71-1.79,4.33-1.79h95.71v-27.14h-101.84c-18.67,0-29.18,10.8-29.18,29.18v58.94ZM413.31,421.24h-29.16v117.6h29.16v-117.6ZM209.63,421.24v117.6h29.18v-90.46h79.39c.84-.08,1.69.01,2.48.29.8.27,1.53.72,2.14,1.3.61.58,1.09,1.29,1.4,2.07.31.78.45,1.63.4,2.47v16.05c.05.84-.09,1.68-.4,2.47-.31.78-.79,1.49-1.4,2.07-.61.58-1.34,1.03-2.14,1.3s-1.64.37-2.48.29h-65.64v27.14h71.78c18.67,0,29.18-10.8,29.18-29.18v-24.23c0-18.67-10.8-29.18-29.18-29.18h-114.7ZM58.19,421.24c-18.67,0-29.18,10.8-29.18,29.18v58.94c0,18.67,10.8,29.18,29.18,29.18h113.25v-24.8h-107.39c-.81,0-1.6-.16-2.35-.47-.74-.31-1.42-.76-1.99-1.33-.57-.57-1.02-1.25-1.33-1.99-.31-.74-.47-1.54-.46-2.35v-55.43c-.04-.83.09-1.66.38-2.43.29-.78.74-1.49,1.31-2.09.57-.6,1.26-1.08,2.02-1.4.76-.33,1.58-.49,2.41-.49h75.28c.85-.04,1.71.1,2.5.4.8.31,1.52.78,2.13,1.38.6.6,1.08,1.33,1.38,2.13.31.8.45,1.65.4,2.5v10.8c0,.82-.17,1.63-.5,2.37-.33.75-.81,1.42-1.42,1.97-.6.55-1.32.97-2.09,1.22-.78.26-1.6.35-2.41.27h-69.42v24.8h75.55c18.67,0,29.18-11.09,29.18-29.18v-14c0-18.67-10.8-29.18-29.18-29.18H58.19Z"/>
</svg>