<svg width="136" height="18" viewBox="0 0 136 18" fill="none" xmlns="http://www.w3.org/2000/svg">
<path d="M104.538 12.9894C104.545 13.1172 104.524 13.2448 104.478 13.3642C104.432 13.4835 104.361 13.5919 104.271 13.6824C104.18 13.7728 104.072 13.8434 103.953 13.8895C103.833 13.9355 103.706 13.9561 103.578 13.9499H92.3089C92.0618 13.9388 91.8285 13.8327 91.6576 13.6537C91.4867 13.4748 91.3915 13.2368 91.3918 12.9894V5.34676C91.3918 5.22632 91.4155 5.10705 91.4616 4.99577C91.5077 4.8845 91.5752 4.78339 91.6604 4.69822C91.7456 4.61305 91.8467 4.54549 91.958 4.4994C92.0692 4.45331 92.1885 4.42958 92.3089 4.42958H103.578C103.702 4.42371 103.826 4.44309 103.942 4.48655C104.058 4.53 104.165 4.59663 104.255 4.68239C104.344 4.76815 104.416 4.87126 104.465 4.98546C104.513 5.09966 104.538 5.22258 104.538 5.34676V12.9894ZM131.702 12.6834C134.017 12.334 135.152 10.7615 135.152 8.35931V4.73476C135.152 1.93985 133.536 0.36731 130.785 0.36731H113.579V17.9689H117.903V4.42958H129.872C129.995 4.42336 130.117 4.44282 130.231 4.48671C130.345 4.5306 130.448 4.59794 130.535 4.68438C130.621 4.77083 130.689 4.87444 130.733 4.98854C130.776 5.10264 130.796 5.22467 130.79 5.34676V7.74895C130.796 7.87103 130.776 7.99307 130.733 8.10717C130.689 8.22127 130.621 8.32488 130.535 8.41133C130.448 8.49777 130.345 8.56511 130.231 8.609C130.117 8.65289 129.995 8.67235 129.872 8.66613H119.694V12.7284H126.682L130.35 17.9697H135.635L131.702 12.6834ZM91.4359 0.36731C88.641 0.36731 87.0685 1.98322 87.0685 4.73476V13.5572C87.0685 16.3521 88.6844 17.9247 91.4359 17.9247H104.495C107.246 17.9247 108.862 16.3088 108.862 13.5572V4.73476C108.862 1.93985 107.246 0.36731 104.495 0.36731H91.4359ZM63.0025 13.5572C63.0025 16.3521 64.6184 17.9247 67.3699 17.9247H82.5693V13.9066H68.2871C68.1629 13.9067 68.04 13.8816 67.9258 13.8329C67.8116 13.7841 67.7085 13.7126 67.6228 13.6228C67.537 13.533 67.4704 13.4267 67.4269 13.3104C67.3835 13.194 67.3641 13.0701 67.3699 12.946V5.34676C67.3699 5.10351 67.4666 4.87022 67.6386 4.69822C67.8106 4.52621 68.0439 4.42958 68.2871 4.42958H82.6127V0.36731H67.3699C64.575 0.36731 63.0025 1.98322 63.0025 4.73476V13.5572ZM58.2816 0.36731H53.9174V17.9689H58.2816V0.36731ZM27.7953 0.36731V17.9689H32.1628V4.42958H44.0452C44.1708 4.41687 44.2976 4.4315 44.417 4.47248C44.5364 4.51346 44.6454 4.57981 44.7367 4.66697C44.828 4.75413 44.8993 4.86003 44.9458 4.97738C44.9922 5.09473 45.0127 5.22074 45.0058 5.34676V7.74895C45.0127 7.87496 44.9922 8.00098 44.9458 8.11833C44.8993 8.23568 44.828 8.34158 44.7367 8.42874C44.6454 8.5159 44.5364 8.58225 44.417 8.62323C44.2976 8.66421 44.1708 8.67884 44.0452 8.66613H34.2197V12.7284H44.964C47.7589 12.7284 49.3315 11.1125 49.3315 8.36094V4.73476C49.3315 1.93985 47.7156 0.36731 44.964 0.36731H27.7953ZM5.12759 0.36731C2.33268 0.36731 0.760132 1.98322 0.760132 4.73476V13.5572C0.760132 16.3521 2.37604 17.9247 5.12759 17.9247H22.0779V14.2126H6.00468C5.88416 14.2126 5.76483 14.1888 5.6535 14.1427C5.54217 14.0965 5.44102 14.0289 5.35584 13.9437C5.27066 13.8584 5.20312 13.7572 5.15708 13.6458C5.11103 13.5345 5.08739 13.4151 5.08749 13.2946V4.9974C5.08162 4.87335 5.101 4.74941 5.14446 4.63308C5.18792 4.51675 5.25455 4.41045 5.34031 4.32064C5.42607 4.23082 5.52917 4.15936 5.64337 4.11058C5.75758 4.0618 5.88049 4.03672 6.00468 4.03685H17.2727C17.4005 4.03066 17.5281 4.05126 17.6475 4.09734C17.7668 4.14342 17.8752 4.21395 17.9657 4.30441C18.0561 4.39488 18.1267 4.50326 18.1727 4.62261C18.2188 4.74195 18.2394 4.86962 18.2332 4.9974V6.61331C18.2336 6.7356 18.2083 6.85661 18.159 6.96851C18.1096 7.0804 18.0374 7.1807 17.9468 7.26291C17.8563 7.34512 17.7495 7.40741 17.6334 7.44575C17.5172 7.48409 17.3944 7.49763 17.2727 7.48549H6.88177V11.1976H18.1907C20.9856 11.1976 22.5581 9.53749 22.5581 6.83013V4.73476C22.5581 1.93985 20.9422 0.36731 18.1907 0.36731H5.12759Z" fill="#025064"/>
</svg>